<svg width="48" height="48" viewBox="0 0 48 48" fill="none" xmlns="http://www.w3.org/2000/svg">
<g filter="url(#filter0_d_1_42158)">
<rect x="4" width="40" height="40" rx="20" fill="white"/>
<path d="M31.0795 11.3295C31.5188 10.8902 32.2312 10.8902 32.6705 11.3295C33.1098 11.7688 33.1098 12.4812 32.6705 12.9205L25.591 20L32.6705 27.0795C33.1098 27.5188 33.1098 28.2312 32.6705 28.6705C32.2312 29.1098 31.5188 29.1098 31.0795 28.6705L24 21.591L16.9205 28.6705C16.4812 29.1098 15.7688 29.1098 15.3295 28.6705C14.8902 28.2312 14.8902 27.5188 15.3295 27.0795L22.409 20L15.3295 12.9205C14.8902 12.4812 14.8902 11.7688 15.3295 11.3295C15.7688 10.8902 16.4812 10.8902 16.9205 11.3295L24 18.409L31.0795 11.3295Z" fill="#001A41"/>
</g>
<defs>
<filter id="filter0_d_1_42158" x="0" y="0" width="48" height="48" filterUnits="userSpaceOnUse" color-interpolation-filters="sRGB">
<feFlood flood-opacity="0" result="BackgroundImageFix"/>
<feColorMatrix in="SourceAlpha" type="matrix" values="0 0 0 0 0 0 0 0 0 0 0 0 0 0 0 0 0 0 127 0" result="hardAlpha"/>
<feOffset dy="4"/>
<feGaussianBlur stdDeviation="2"/>
<feColorMatrix type="matrix" values="0 0 0 0 0 0 0 0 0 0 0 0 0 0 0 0 0 0 0.25 0"/>
<feBlend mode="normal" in2="BackgroundImageFix" result="effect1_dropShadow_1_42158"/>
<feBlend mode="normal" in="SourceGraphic" in2="effect1_dropShadow_1_42158" result="shape"/>
</filter>
</defs>
</svg>
