<svg width="48" height="48" viewBox="0 0 48 48" fill="none" xmlns="http://www.w3.org/2000/svg">
<g filter="url(#filter0_d_1_42066)">
<rect x="4" width="40" height="40" rx="20" fill="#D9801F"/>
<path fill-rule="evenodd" clip-rule="evenodd" d="M15.0271 11.6819C15.1476 11.1997 15.6363 10.9065 16.1185 11.0271L18.355 11.5862C19.4289 11.8547 20.2164 12.7453 20.372 13.8156L31.4542 15.3988C32.341 15.5255 32.9996 16.2849 32.9996 17.1807V20.0001C32.9996 20.9942 32.1937 21.8001 31.1996 21.8001H21.0876C21.582 22.3524 22.3005 22.7001 23.1001 22.7001H32.1C32.5971 22.7001 33 23.103 33 23.6001C33 24.0971 32.5971 24.5 32.1 24.5H31.4123C31.8398 24.9777 32.0998 25.6085 32.0998 26.3C32.0998 27.7912 30.891 29 29.3998 29C27.9087 29 26.6999 27.7912 26.6999 26.3C26.6999 25.6085 26.9598 24.9777 27.3874 24.5H23.3124C23.7399 24.9777 23.9999 25.6085 23.9999 26.3C23.9999 27.7912 22.7911 29 21.2999 29C19.8088 29 18.6 27.7912 18.6 26.3C18.6 25.0701 19.4224 24.0322 20.5473 23.7064C19.371 22.8946 18.6002 21.5374 18.6002 20.0001V19.4577C19.1495 19.7975 19.7852 19.9985 20.3927 20.0001H31.1996V17.1807L20.4001 15.6379V18.6501C19.9776 18.6501 19.452 18.46 19.0328 18.1097C18.8556 17.9616 18.7094 17.7956 18.6002 17.617V14.2056C18.6002 13.7926 18.3191 13.4326 17.9185 13.3325L15.6819 12.7733C15.1997 12.6528 14.9065 12.1641 15.0271 11.6819ZM30.2998 26.3C30.2998 26.7971 29.8969 27.2 29.3998 27.2C28.9028 27.2 28.4998 26.7971 28.4998 26.3C28.4998 25.803 28.9028 25.4 29.3998 25.4C29.8969 25.4 30.2998 25.803 30.2998 26.3ZM21.2999 27.2C21.797 27.2 22.1999 26.7971 22.1999 26.3C22.1999 25.803 21.797 25.4 21.2999 25.4C20.8029 25.4 20.3999 25.803 20.3999 26.3C20.3999 26.7971 20.8029 27.2 21.2999 27.2Z" fill="white"/>
</g>
<defs>
<filter id="filter0_d_1_42066" x="0" y="0" width="48" height="48" filterUnits="userSpaceOnUse" color-interpolation-filters="sRGB">
<feFlood flood-opacity="0" result="BackgroundImageFix"/>
<feColorMatrix in="SourceAlpha" type="matrix" values="0 0 0 0 0 0 0 0 0 0 0 0 0 0 0 0 0 0 127 0" result="hardAlpha"/>
<feOffset dy="4"/>
<feGaussianBlur stdDeviation="2"/>
<feColorMatrix type="matrix" values="0 0 0 0 0 0 0 0 0 0 0 0 0 0 0 0 0 0 0.25 0"/>
<feBlend mode="normal" in2="BackgroundImageFix" result="effect1_dropShadow_1_42066"/>
<feBlend mode="normal" in="SourceGraphic" in2="effect1_dropShadow_1_42066" result="shape"/>
</filter>
</defs>
</svg>
